ISO-10303-21;
HEADER;
/* Generated by software containing ST-Developer
 * from STEP Tools, Inc. (www.steptools.com) 
 */
/* OPTION: using custom renumber hook */

FILE_DESCRIPTION(
/* description */ ('STEP AP242',
'CAx-IF Rec.Pracs.---Representation and Presentation of Product Manufa
cturing Information (PMI)---4.0---2014-10-13',
'CAx-IF Rec.Pracs.---3D Tessellated Geometry---0.4---2014-09-14','2;1'),

/* implementation_level */ '2;1');

FILE_NAME(
/* name */ '68042RS',
/* time_stamp */ '2026-04-19T21:47:33+02:00',
/* author */ ('License CC BY-ND 4.0'),
/* organization */ ('CADENAS'),
/* preprocessor_version */ 'ST-DEVELOPER v20',
/* originating_system */ 'PARTsolutions',
/* authorisation */ '  ');

FILE_SCHEMA (('AP242_MANAGED_MODEL_BASED_3D_ENGINEERING_MIM_LF { 1 0 10303 442 1 1 4 }'));
ENDSEC;

DATA;
#10=VERTEX_LOOP('',#196);
#11=SPHERICAL_SURFACE('',#445,1.75);
#12=CONTEXT_DEPENDENT_SHAPE_REPRESENTATION(#46,#711);
#13=CONTEXT_DEPENDENT_SHAPE_REPRESENTATION(#47,#713);
#14=CONTEXT_DEPENDENT_SHAPE_REPRESENTATION(#48,#715);
#15=CONTEXT_DEPENDENT_SHAPE_REPRESENTATION(#49,#716);
#16=CONTEXT_DEPENDENT_SHAPE_REPRESENTATION(#50,#717);
#17=CONTEXT_DEPENDENT_SHAPE_REPRESENTATION(#51,#718);
#18=CONTEXT_DEPENDENT_SHAPE_REPRESENTATION(#52,#719);
#19=CONTEXT_DEPENDENT_SHAPE_REPRESENTATION(#53,#720);
#20=CONTEXT_DEPENDENT_SHAPE_REPRESENTATION(#54,#721);
#21=CONTEXT_DEPENDENT_SHAPE_REPRESENTATION(#55,#722);
#22=CONTEXT_DEPENDENT_SHAPE_REPRESENTATION(#56,#723);
#23=CONTEXT_DEPENDENT_SHAPE_REPRESENTATION(#57,#724);
#24=CONTEXT_DEPENDENT_SHAPE_REPRESENTATION(#58,#725);
#25=CONTEXT_DEPENDENT_SHAPE_REPRESENTATION(#59,#726);
#26=CONTEXT_DEPENDENT_SHAPE_REPRESENTATION(#60,#727);
#27=CONTEXT_DEPENDENT_SHAPE_REPRESENTATION(#61,#729);
#28=CONTEXT_DEPENDENT_SHAPE_REPRESENTATION(#62,#730);
#29=NEXT_ASSEMBLY_USAGE_OCCURRENCE('NAUO1','68042RS Inner ring',
'68042RS Inner ring',#731,#732,'');
#30=NEXT_ASSEMBLY_USAGE_OCCURRENCE('NAUO2','68042RS Outer ring',
'68042RS Outer ring',#731,#733,'');
#31=NEXT_ASSEMBLY_USAGE_OCCURRENCE('NAUO3','68042RS Ball',
'68042RS Ball',#731,#734,'');
#32=NEXT_ASSEMBLY_USAGE_OCCURRENCE('NAUO4','68042RS Ball',
'68042RS Ball',#731,#734,'');
#33=NEXT_ASSEMBLY_USAGE_OCCURRENCE('NAUO5','68042RS Ball',
'68042RS Ball',#731,#734,'');
#34=NEXT_ASSEMBLY_USAGE_OCCURRENCE('NAUO6','68042RS Ball',
'68042RS Ball',#731,#734,'');
#35=NEXT_ASSEMBLY_USAGE_OCCURRENCE('NAUO7','68042RS Ball',
'68042RS Ball',#731,#734,'');
#36=NEXT_ASSEMBLY_USAGE_OCCURRENCE('NAUO8','68042RS Ball',
'68042RS Ball',#731,#734,'');
#37=NEXT_ASSEMBLY_USAGE_OCCURRENCE('NAUO9','68042RS Ball',
'68042RS Ball',#731,#734,'');
#38=NEXT_ASSEMBLY_USAGE_OCCURRENCE('NAUO10','68042RS Ball',
'68042RS Ball',#731,#734,'');
#39=NEXT_ASSEMBLY_USAGE_OCCURRENCE('NAUO11','68042RS Ball',
'68042RS Ball',#731,#734,'');
#40=NEXT_ASSEMBLY_USAGE_OCCURRENCE('NAUO12','68042RS Ball',
'68042RS Ball',#731,#734,'');
#41=NEXT_ASSEMBLY_USAGE_OCCURRENCE('NAUO13','68042RS Ball',
'68042RS Ball',#731,#734,'');
#42=NEXT_ASSEMBLY_USAGE_OCCURRENCE('NAUO14','68042RS Ball',
'68042RS Ball',#731,#734,'');
#43=NEXT_ASSEMBLY_USAGE_OCCURRENCE('NAUO15','68042RS Ball',
'68042RS Ball',#731,#734,'');
#44=NEXT_ASSEMBLY_USAGE_OCCURRENCE('NAUO16','68042RS Seal',
'68042RS Seal',#731,#735,'');
#45=NEXT_ASSEMBLY_USAGE_OCCURRENCE('NAUO17','68042RS Seal',
'68042RS Seal',#731,#735,'');
#46=(
REPRESENTATION_RELATIONSHIP(' ',' ',#398,#397)
REPRESENTATION_RELATIONSHIP_WITH_TRANSFORMATION(#63)
SHAPE_REPRESENTATION_RELATIONSHIP()
);
#47=(
REPRESENTATION_RELATIONSHIP(' ',' ',#399,#397)
REPRESENTATION_RELATIONSHIP_WITH_TRANSFORMATION(#64)
SHAPE_REPRESENTATION_RELATIONSHIP()
);
#48=(
REPRESENTATION_RELATIONSHIP(' ',' ',#400,#397)
REPRESENTATION_RELATIONSHIP_WITH_TRANSFORMATION(#65)
SHAPE_REPRESENTATION_RELATIONSHIP()
);
#49=(
REPRESENTATION_RELATIONSHIP(' ',' ',#400,#397)
REPRESENTATION_RELATIONSHIP_WITH_TRANSFORMATION(#66)
SHAPE_REPRESENTATION_RELATIONSHIP()
);
#50=(
REPRESENTATION_RELATIONSHIP(' ',' ',#400,#397)
REPRESENTATION_RELATIONSHIP_WITH_TRANSFORMATION(#67)
SHAPE_REPRESENTATION_RELATIONSHIP()
);
#51=(
REPRESENTATION_RELATIONSHIP(' ',' ',#400,#397)
REPRESENTATION_RELATIONSHIP_WITH_TRANSFORMATION(#68)
SHAPE_REPRESENTATION_RELATIONSHIP()
);
#52=(
REPRESENTATION_RELATIONSHIP(' ',' ',#400,#397)
REPRESENTATION_RELATIONSHIP_WITH_TRANSFORMATION(#69)
SHAPE_REPRESENTATION_RELATIONSHIP()
);
#53=(
REPRESENTATION_RELATIONSHIP(' ',' ',#400,#397)
REPRESENTATION_RELATIONSHIP_WITH_TRANSFORMATION(#70)
SHAPE_REPRESENTATION_RELATIONSHIP()
);
#54=(
REPRESENTATION_RELATIONSHIP(' ',' ',#400,#397)
REPRESENTATION_RELATIONSHIP_WITH_TRANSFORMATION(#71)
SHAPE_REPRESENTATION_RELATIONSHIP()
);
#55=(
REPRESENTATION_RELATIONSHIP(' ',' ',#400,#397)
REPRESENTATION_RELATIONSHIP_WITH_TRANSFORMATION(#72)
SHAPE_REPRESENTATION_RELATIONSHIP()
);
#56=(
REPRESENTATION_RELATIONSHIP(' ',' ',#400,#397)
REPRESENTATION_RELATIONSHIP_WITH_TRANSFORMATION(#73)
SHAPE_REPRESENTATION_RELATIONSHIP()
);
#57=(
REPRESENTATION_RELATIONSHIP(' ',' ',#400,#397)
REPRESENTATION_RELATIONSHIP_WITH_TRANSFORMATION(#74)
SHAPE_REPRESENTATION_RELATIONSHIP()
);
#58=(
REPRESENTATION_RELATIONSHIP(' ',' ',#400,#397)
REPRESENTATION_RELATIONSHIP_WITH_TRANSFORMATION(#75)
SHAPE_REPRESENTATION_RELATIONSHIP()
);
#59=(
REPRESENTATION_RELATIONSHIP(' ',' ',#400,#397)
REPRESENTATION_RELATIONSHIP_WITH_TRANSFORMATION(#76)
SHAPE_REPRESENTATION_RELATIONSHIP()
);
#60=(
REPRESENTATION_RELATIONSHIP(' ',' ',#400,#397)
REPRESENTATION_RELATIONSHIP_WITH_TRANSFORMATION(#77)
SHAPE_REPRESENTATION_RELATIONSHIP()
);
#61=(
REPRESENTATION_RELATIONSHIP(' ',' ',#401,#397)
REPRESENTATION_RELATIONSHIP_WITH_TRANSFORMATION(#78)
SHAPE_REPRESENTATION_RELATIONSHIP()
);
#62=(
REPRESENTATION_RELATIONSHIP(' ',' ',#401,#397)
REPRESENTATION_RELATIONSHIP_WITH_TRANSFORMATION(#79)
SHAPE_REPRESENTATION_RELATIONSHIP()
);
#63=ITEM_DEFINED_TRANSFORMATION(' ',' ',#402,#419);
#64=ITEM_DEFINED_TRANSFORMATION(' ',' ',#402,#444);
#65=ITEM_DEFINED_TRANSFORMATION(' ',' ',#402,#446);
#66=ITEM_DEFINED_TRANSFORMATION(' ',' ',#402,#447);
#67=ITEM_DEFINED_TRANSFORMATION(' ',' ',#402,#448);
#68=ITEM_DEFINED_TRANSFORMATION(' ',' ',#402,#449);
#69=ITEM_DEFINED_TRANSFORMATION(' ',' ',#402,#450);
#70=ITEM_DEFINED_TRANSFORMATION(' ',' ',#402,#451);
#71=ITEM_DEFINED_TRANSFORMATION(' ',' ',#402,#452);
#72=ITEM_DEFINED_TRANSFORMATION(' ',' ',#402,#453);
#73=ITEM_DEFINED_TRANSFORMATION(' ',' ',#402,#454);
#74=ITEM_DEFINED_TRANSFORMATION(' ',' ',#402,#455);
#75=ITEM_DEFINED_TRANSFORMATION(' ',' ',#402,#456);
#76=ITEM_DEFINED_TRANSFORMATION(' ',' ',#402,#457);
#77=ITEM_DEFINED_TRANSFORMATION(' ',' ',#402,#458);
#78=ITEM_DEFINED_TRANSFORMATION(' ',' ',#402,#467);
#79=ITEM_DEFINED_TRANSFORMATION(' ',' ',#402,#468);
#80=SHAPE_REPRESENTATION_RELATIONSHIP('','',#398,#84);
#81=SHAPE_REPRESENTATION_RELATIONSHIP('','',#399,#85);
#82=SHAPE_REPRESENTATION_RELATIONSHIP('','',#400,#86);
#83=SHAPE_REPRESENTATION_RELATIONSHIP('','',#401,#87);
#84=ADVANCED_BREP_SHAPE_REPRESENTATION('',(#388),#697);
#85=ADVANCED_BREP_SHAPE_REPRESENTATION('',(#389),#698);
#86=ADVANCED_BREP_SHAPE_REPRESENTATION('',(#390),#699);
#87=ADVANCED_BREP_SHAPE_REPRESENTATION('',(#391),#700);
#88=CYLINDRICAL_SURFACE('',#408,10.);
#89=CYLINDRICAL_SURFACE('',#414,11.6);
#90=CYLINDRICAL_SURFACE('',#418,11.6);
#91=CYLINDRICAL_SURFACE('',#423,14.55);
#92=CYLINDRICAL_SURFACE('',#427,14.05);
#93=CYLINDRICAL_SURFACE('',#431,14.05);
#94=CYLINDRICAL_SURFACE('',#435,14.55);
#95=CYLINDRICAL_SURFACE('',#441,16.);
#96=CYLINDRICAL_SURFACE('',#459,14.55);
#97=CYLINDRICAL_SURFACE('',#464,11.6);
#98=TOROIDAL_SURFACE('',#406,10.5927827300201,0.599999999999999);
#99=TOROIDAL_SURFACE('',#410,10.5927827300201,0.6);
#100=TOROIDAL_SURFACE('',#416,12.75,1.75);
#101=TOROIDAL_SURFACE('',#429,12.75,1.75);
#102=TOROIDAL_SURFACE('',#439,15.40721726998,0.599999999999991);
#103=TOROIDAL_SURFACE('',#443,15.4072172699799,0.6);
#104=ORIENTED_EDGE('',*,*,#152,.T.);
#105=ORIENTED_EDGE('',*,*,#153,.F.);
#106=ORIENTED_EDGE('',*,*,#154,.T.);
#107=ORIENTED_EDGE('',*,*,#152,.F.);
#108=ORIENTED_EDGE('',*,*,#155,.T.);
#109=ORIENTED_EDGE('',*,*,#154,.F.);
#110=ORIENTED_EDGE('',*,*,#156,.T.);
#111=ORIENTED_EDGE('',*,*,#155,.F.);
#112=ORIENTED_EDGE('',*,*,#157,.T.);
#113=ORIENTED_EDGE('',*,*,#156,.F.);
#114=ORIENTED_EDGE('',*,*,#158,.T.);
#115=ORIENTED_EDGE('',*,*,#157,.F.);
#116=ORIENTED_EDGE('',*,*,#158,.F.);
#117=ORIENTED_EDGE('',*,*,#159,.T.);
#118=ORIENTED_EDGE('',*,*,#153,.T.);
#119=ORIENTED_EDGE('',*,*,#159,.F.);
#120=ORIENTED_EDGE('',*,*,#160,.T.);
#121=ORIENTED_EDGE('',*,*,#161,.F.);
#122=ORIENTED_EDGE('',*,*,#162,.T.);
#123=ORIENTED_EDGE('',*,*,#160,.F.);
#124=ORIENTED_EDGE('',*,*,#163,.T.);
#125=ORIENTED_EDGE('',*,*,#162,.F.);
#126=ORIENTED_EDGE('',*,*,#164,.T.);
#127=ORIENTED_EDGE('',*,*,#163,.F.);
#128=ORIENTED_EDGE('',*,*,#164,.F.);
#129=ORIENTED_EDGE('',*,*,#165,.T.);
#130=ORIENTED_EDGE('',*,*,#166,.T.);
#131=ORIENTED_EDGE('',*,*,#165,.F.);
#132=ORIENTED_EDGE('',*,*,#167,.T.);
#133=ORIENTED_EDGE('',*,*,#166,.F.);
#134=ORIENTED_EDGE('',*,*,#168,.T.);
#135=ORIENTED_EDGE('',*,*,#167,.F.);
#136=ORIENTED_EDGE('',*,*,#169,.T.);
#137=ORIENTED_EDGE('',*,*,#168,.F.);
#138=ORIENTED_EDGE('',*,*,#170,.T.);
#139=ORIENTED_EDGE('',*,*,#169,.F.);
#140=ORIENTED_EDGE('',*,*,#171,.T.);
#141=ORIENTED_EDGE('',*,*,#170,.F.);
#142=ORIENTED_EDGE('',*,*,#161,.T.);
#143=ORIENTED_EDGE('',*,*,#171,.F.);
#144=ORIENTED_EDGE('',*,*,#172,.T.);
#145=ORIENTED_EDGE('',*,*,#173,.F.);
#146=ORIENTED_EDGE('',*,*,#174,.T.);
#147=ORIENTED_EDGE('',*,*,#172,.F.);
#148=ORIENTED_EDGE('',*,*,#175,.T.);
#149=ORIENTED_EDGE('',*,*,#174,.F.);
#150=ORIENTED_EDGE('',*,*,#173,.T.);
#151=ORIENTED_EDGE('',*,*,#175,.F.);
#152=EDGE_CURVE('',#176,#176,#201,.T.);
#153=EDGE_CURVE('',#177,#177,#202,.T.);
#154=EDGE_CURVE('',#178,#178,#203,.T.);
#155=EDGE_CURVE('',#179,#179,#204,.T.);
#156=EDGE_CURVE('',#180,#180,#205,.T.);
#157=EDGE_CURVE('',#181,#181,#206,.T.);
#158=EDGE_CURVE('',#182,#182,#207,.T.);
#159=EDGE_CURVE('',#183,#183,#208,.T.);
#160=EDGE_CURVE('',#184,#184,#209,.T.);
#161=EDGE_CURVE('',#185,#185,#210,.T.);
#162=EDGE_CURVE('',#186,#186,#211,.T.);
#163=EDGE_CURVE('',#187,#187,#212,.T.);
#164=EDGE_CURVE('',#188,#188,#213,.T.);
#165=EDGE_CURVE('',#189,#189,#214,.T.);
#166=EDGE_CURVE('',#190,#190,#215,.T.);
#167=EDGE_CURVE('',#191,#191,#216,.T.);
#168=EDGE_CURVE('',#192,#192,#217,.T.);
#169=EDGE_CURVE('',#193,#193,#218,.T.);
#170=EDGE_CURVE('',#194,#194,#219,.T.);
#171=EDGE_CURVE('',#195,#195,#220,.T.);
#172=EDGE_CURVE('',#197,#197,#221,.T.);
#173=EDGE_CURVE('',#198,#198,#222,.T.);
#174=EDGE_CURVE('',#199,#199,#223,.T.);
#175=EDGE_CURVE('',#200,#200,#224,.T.);
#176=VERTEX_POINT('',#606);
#177=VERTEX_POINT('',#608);
#178=VERTEX_POINT('',#611);
#179=VERTEX_POINT('',#614);
#180=VERTEX_POINT('',#617);
#181=VERTEX_POINT('',#620);
#182=VERTEX_POINT('',#623);
#183=VERTEX_POINT('',#626);
#184=VERTEX_POINT('',#631);
#185=VERTEX_POINT('',#633);
#186=VERTEX_POINT('',#636);
#187=VERTEX_POINT('',#639);
#188=VERTEX_POINT('',#642);
#189=VERTEX_POINT('',#645);
#190=VERTEX_POINT('',#648);
#191=VERTEX_POINT('',#651);
#192=VERTEX_POINT('',#654);
#193=VERTEX_POINT('',#657);
#194=VERTEX_POINT('',#660);
#195=VERTEX_POINT('',#663);
#196=VERTEX_POINT('',#667);
#197=VERTEX_POINT('',#683);
#198=VERTEX_POINT('',#685);
#199=VERTEX_POINT('',#688);
#200=VERTEX_POINT('',#691);
#201=CIRCLE('',#404,10.5);
#202=CIRCLE('',#405,11.6);
#203=CIRCLE('',#407,10.);
#204=CIRCLE('',#409,10.);
#205=CIRCLE('',#411,10.5);
#206=CIRCLE('',#413,11.6);
#207=CIRCLE('',#415,11.6);
#208=CIRCLE('',#417,11.6);
#209=CIRCLE('',#421,14.55);
#210=CIRCLE('',#422,15.5);
#211=CIRCLE('',#424,14.55);
#212=CIRCLE('',#426,14.05);
#213=CIRCLE('',#428,14.05);
#214=CIRCLE('',#430,14.05);
#215=CIRCLE('',#432,14.05);
#216=CIRCLE('',#434,14.55);
#217=CIRCLE('',#436,14.55);
#218=CIRCLE('',#438,15.5);
#219=CIRCLE('',#440,16.);
#220=CIRCLE('',#442,16.);
#221=CIRCLE('',#460,14.55);
#222=CIRCLE('',#461,14.55);
#223=CIRCLE('',#463,11.6);
#224=CIRCLE('',#465,11.6);
#225=EDGE_LOOP('',(#104));
#226=EDGE_LOOP('',(#105));
#227=EDGE_LOOP('',(#106));
#228=EDGE_LOOP('',(#107));
#229=EDGE_LOOP('',(#108));
#230=EDGE_LOOP('',(#109));
#231=EDGE_LOOP('',(#110));
#232=EDGE_LOOP('',(#111));
#233=EDGE_LOOP('',(#112));
#234=EDGE_LOOP('',(#113));
#235=EDGE_LOOP('',(#114));
#236=EDGE_LOOP('',(#115));
#237=EDGE_LOOP('',(#116));
#238=EDGE_LOOP('',(#117));
#239=EDGE_LOOP('',(#118));
#240=EDGE_LOOP('',(#119));
#241=EDGE_LOOP('',(#120));
#242=EDGE_LOOP('',(#121));
#243=EDGE_LOOP('',(#122));
#244=EDGE_LOOP('',(#123));
#245=EDGE_LOOP('',(#124));
#246=EDGE_LOOP('',(#125));
#247=EDGE_LOOP('',(#126));
#248=EDGE_LOOP('',(#127));
#249=EDGE_LOOP('',(#128));
#250=EDGE_LOOP('',(#129));
#251=EDGE_LOOP('',(#130));
#252=EDGE_LOOP('',(#131));
#253=EDGE_LOOP('',(#132));
#254=EDGE_LOOP('',(#133));
#255=EDGE_LOOP('',(#134));
#256=EDGE_LOOP('',(#135));
#257=EDGE_LOOP('',(#136));
#258=EDGE_LOOP('',(#137));
#259=EDGE_LOOP('',(#138));
#260=EDGE_LOOP('',(#139));
#261=EDGE_LOOP('',(#140));
#262=EDGE_LOOP('',(#141));
#263=EDGE_LOOP('',(#142));
#264=EDGE_LOOP('',(#143));
#265=EDGE_LOOP('',(#144));
#266=EDGE_LOOP('',(#145));
#267=EDGE_LOOP('',(#146));
#268=EDGE_LOOP('',(#147));
#269=EDGE_LOOP('',(#148));
#270=EDGE_LOOP('',(#149));
#271=EDGE_LOOP('',(#150));
#272=EDGE_LOOP('',(#151));
#273=FACE_BOUND('',#225,.T.);
#274=FACE_BOUND('',#226,.T.);
#275=FACE_BOUND('',#227,.T.);
#276=FACE_BOUND('',#228,.T.);
#277=FACE_BOUND('',#229,.T.);
#278=FACE_BOUND('',#230,.T.);
#279=FACE_BOUND('',#231,.T.);
#280=FACE_BOUND('',#232,.T.);
#281=FACE_BOUND('',#233,.T.);
#282=FACE_BOUND('',#234,.T.);
#283=FACE_BOUND('',#235,.T.);
#284=FACE_BOUND('',#236,.T.);
#285=FACE_BOUND('',#237,.T.);
#286=FACE_BOUND('',#238,.T.);
#287=FACE_BOUND('',#239,.T.);
#288=FACE_BOUND('',#240,.T.);
#289=FACE_BOUND('',#241,.T.);
#290=FACE_BOUND('',#242,.T.);
#291=FACE_BOUND('',#243,.T.);
#292=FACE_BOUND('',#244,.T.);
#293=FACE_BOUND('',#245,.T.);
#294=FACE_BOUND('',#246,.T.);
#295=FACE_BOUND('',#247,.T.);
#296=FACE_BOUND('',#248,.T.);
#297=FACE_BOUND('',#249,.T.);
#298=FACE_BOUND('',#250,.T.);
#299=FACE_BOUND('',#251,.T.);
#300=FACE_BOUND('',#252,.T.);
#301=FACE_BOUND('',#253,.T.);
#302=FACE_BOUND('',#254,.T.);
#303=FACE_BOUND('',#255,.T.);
#304=FACE_BOUND('',#256,.T.);
#305=FACE_BOUND('',#257,.T.);
#306=FACE_BOUND('',#258,.T.);
#307=FACE_BOUND('',#259,.T.);
#308=FACE_BOUND('',#260,.T.);
#309=FACE_BOUND('',#261,.T.);
#310=FACE_BOUND('',#262,.T.);
#311=FACE_BOUND('',#263,.T.);
#312=FACE_BOUND('',#264,.T.);
#313=FACE_BOUND('',#10,.T.);
#314=FACE_BOUND('',#265,.T.);
#315=FACE_BOUND('',#266,.T.);
#316=FACE_BOUND('',#267,.T.);
#317=FACE_BOUND('',#268,.T.);
#318=FACE_BOUND('',#269,.T.);
#319=FACE_BOUND('',#270,.T.);
#320=FACE_BOUND('',#271,.T.);
#321=FACE_BOUND('',#272,.T.);
#322=PLANE('',#403);
#323=PLANE('',#412);
#324=PLANE('',#420);
#325=PLANE('',#425);
#326=PLANE('',#433);
#327=PLANE('',#437);
#328=PLANE('',#462);
#329=PLANE('',#466);
#330=ADVANCED_FACE('',(#273,#274),#322,.T.);
#331=ADVANCED_FACE('',(#275,#276),#98,.T.);
#332=ADVANCED_FACE('',(#277,#278),#88,.F.);
#333=ADVANCED_FACE('',(#279,#280),#99,.T.);
#334=ADVANCED_FACE('',(#281,#282),#323,.T.);
#335=ADVANCED_FACE('',(#283,#284),#89,.T.);
#336=ADVANCED_FACE('',(#285,#286),#100,.F.);
#337=ADVANCED_FACE('',(#287,#288),#90,.T.);
#338=ADVANCED_FACE('',(#289,#290),#324,.T.);
#339=ADVANCED_FACE('',(#291,#292),#91,.F.);
#340=ADVANCED_FACE('',(#293,#294),#325,.T.);
#341=ADVANCED_FACE('',(#295,#296),#92,.F.);
#342=ADVANCED_FACE('',(#297,#298),#101,.F.);
#343=ADVANCED_FACE('',(#299,#300),#93,.F.);
#344=ADVANCED_FACE('',(#301,#302),#326,.T.);
#345=ADVANCED_FACE('',(#303,#304),#94,.F.);
#346=ADVANCED_FACE('',(#305,#306),#327,.T.);
#347=ADVANCED_FACE('',(#307,#308),#102,.T.);
#348=ADVANCED_FACE('',(#309,#310),#95,.T.);
#349=ADVANCED_FACE('',(#311,#312),#103,.T.);
#350=ADVANCED_FACE('',(#313),#11,.T.);
#351=ADVANCED_FACE('',(#314,#315),#96,.T.);
#352=ADVANCED_FACE('',(#316,#317),#328,.T.);
#353=ADVANCED_FACE('',(#318,#319),#97,.F.);
#354=ADVANCED_FACE('',(#320,#321),#329,.T.);
#355=CLOSED_SHELL('',(#330,#331,#332,#333,#334,#335,#336,#337));
#356=CLOSED_SHELL('',(#338,#339,#340,#341,#342,#343,#344,#345,#346,#347,
#348,#349));
#357=CLOSED_SHELL('',(#350));
#358=CLOSED_SHELL('',(#351,#352,#353,#354));
#359=STYLED_ITEM('',(#363),#388);
#360=STYLED_ITEM('',(#364),#389);
#361=STYLED_ITEM('',(#365),#390);
#362=STYLED_ITEM('',(#366),#391);
#363=PRESENTATION_STYLE_ASSIGNMENT((#367));
#364=PRESENTATION_STYLE_ASSIGNMENT((#368));
#365=PRESENTATION_STYLE_ASSIGNMENT((#369));
#366=PRESENTATION_STYLE_ASSIGNMENT((#370));
#367=SURFACE_STYLE_USAGE(.BOTH.,#371);
#368=SURFACE_STYLE_USAGE(.BOTH.,#372);
#369=SURFACE_STYLE_USAGE(.BOTH.,#373);
#370=SURFACE_STYLE_USAGE(.BOTH.,#374);
#371=SURFACE_SIDE_STYLE('',(#375));
#372=SURFACE_SIDE_STYLE('',(#376));
#373=SURFACE_SIDE_STYLE('',(#377));
#374=SURFACE_SIDE_STYLE('',(#378));
#375=SURFACE_STYLE_FILL_AREA(#379);
#376=SURFACE_STYLE_FILL_AREA(#380);
#377=SURFACE_STYLE_FILL_AREA(#381);
#378=SURFACE_STYLE_FILL_AREA(#382);
#379=FILL_AREA_STYLE('',(#383));
#380=FILL_AREA_STYLE('',(#384));
#381=FILL_AREA_STYLE('',(#385));
#382=FILL_AREA_STYLE('',(#386));
#383=FILL_AREA_STYLE_COLOUR('',#387);
#384=FILL_AREA_STYLE_COLOUR('',#387);
#385=FILL_AREA_STYLE_COLOUR('',#387);
#386=FILL_AREA_STYLE_COLOUR('',#387);
#387=COLOUR_RGB('',0.689999997615814,0.689999997615814,0.689999997615814);
#388=MANIFOLD_SOLID_BREP('68042RS Inner ring',#355);
#389=MANIFOLD_SOLID_BREP('68042RS Outer ring',#356);
#390=MANIFOLD_SOLID_BREP('68042RS Ball',#357);
#391=MANIFOLD_SOLID_BREP('68042RS Seal',#358);
#392=SHAPE_DEFINITION_REPRESENTATION(#709,#397);
#393=SHAPE_DEFINITION_REPRESENTATION(#710,#398);
#394=SHAPE_DEFINITION_REPRESENTATION(#712,#399);
#395=SHAPE_DEFINITION_REPRESENTATION(#714,#400);
#396=SHAPE_DEFINITION_REPRESENTATION(#728,#401);
#397=SHAPE_REPRESENTATION('68042RS',(#402,#419,#444,#446,#447,#448,#449,
#450,#451,#452,#453,#454,#455,#456,#457,#458,#467,#468),#696);
#398=SHAPE_REPRESENTATION('68042RS Inner ring',(#402),#697);
#399=SHAPE_REPRESENTATION('68042RS Outer ring',(#402),#698);
#400=SHAPE_REPRESENTATION('68042RS Ball',(#402),#699);
#401=SHAPE_REPRESENTATION('68042RS Seal',(#402),#700);
#402=AXIS2_PLACEMENT_3D('',#603,#469,#470);
#403=AXIS2_PLACEMENT_3D('',#604,#471,#472);
#404=AXIS2_PLACEMENT_3D('',#605,#473,#474);
#405=AXIS2_PLACEMENT_3D('',#607,#475,#476);
#406=AXIS2_PLACEMENT_3D('',#609,#477,#478);
#407=AXIS2_PLACEMENT_3D('',#610,#479,#480);
#408=AXIS2_PLACEMENT_3D('',#612,#481,#482);
#409=AXIS2_PLACEMENT_3D('',#613,#483,#484);
#410=AXIS2_PLACEMENT_3D('',#615,#485,#486);
#411=AXIS2_PLACEMENT_3D('',#616,#487,#488);
#412=AXIS2_PLACEMENT_3D('',#618,#489,#490);
#413=AXIS2_PLACEMENT_3D('',#619,#491,#492);
#414=AXIS2_PLACEMENT_3D('',#621,#493,#494);
#415=AXIS2_PLACEMENT_3D('',#622,#495,#496);
#416=AXIS2_PLACEMENT_3D('',#624,#497,#498);
#417=AXIS2_PLACEMENT_3D('',#625,#499,#500);
#418=AXIS2_PLACEMENT_3D('',#627,#501,#502);
#419=AXIS2_PLACEMENT_3D('',#628,#503,#504);
#420=AXIS2_PLACEMENT_3D('',#629,#505,#506);
#421=AXIS2_PLACEMENT_3D('',#630,#507,#508);
#422=AXIS2_PLACEMENT_3D('',#632,#509,#510);
#423=AXIS2_PLACEMENT_3D('',#634,#511,#512);
#424=AXIS2_PLACEMENT_3D('',#635,#513,#514);
#425=AXIS2_PLACEMENT_3D('',#637,#515,#516);
#426=AXIS2_PLACEMENT_3D('',#638,#517,#518);
#427=AXIS2_PLACEMENT_3D('',#640,#519,#520);
#428=AXIS2_PLACEMENT_3D('',#641,#521,#522);
#429=AXIS2_PLACEMENT_3D('',#643,#523,#524);
#430=AXIS2_PLACEMENT_3D('',#644,#525,#526);
#431=AXIS2_PLACEMENT_3D('',#646,#527,#528);
#432=AXIS2_PLACEMENT_3D('',#647,#529,#530);
#433=AXIS2_PLACEMENT_3D('',#649,#531,#532);
#434=AXIS2_PLACEMENT_3D('',#650,#533,#534);
#435=AXIS2_PLACEMENT_3D('',#652,#535,#536);
#436=AXIS2_PLACEMENT_3D('',#653,#537,#538);
#437=AXIS2_PLACEMENT_3D('',#655,#539,#540);
#438=AXIS2_PLACEMENT_3D('',#656,#541,#542);
#439=AXIS2_PLACEMENT_3D('',#658,#543,#544);
#440=AXIS2_PLACEMENT_3D('',#659,#545,#546);
#441=AXIS2_PLACEMENT_3D('',#661,#547,#548);
#442=AXIS2_PLACEMENT_3D('',#662,#549,#550);
#443=AXIS2_PLACEMENT_3D('',#664,#551,#552);
#444=AXIS2_PLACEMENT_3D('',#665,#553,#554);
#445=AXIS2_PLACEMENT_3D('',#666,#555,#556);
#446=AXIS2_PLACEMENT_3D('',#668,#557,#558);
#447=AXIS2_PLACEMENT_3D('',#669,#559,#560);
#448=AXIS2_PLACEMENT_3D('',#670,#561,#562);
#449=AXIS2_PLACEMENT_3D('',#671,#563,#564);
#450=AXIS2_PLACEMENT_3D('',#672,#565,#566);
#451=AXIS2_PLACEMENT_3D('',#673,#567,#568);
#452=AXIS2_PLACEMENT_3D('',#674,#569,#570);
#453=AXIS2_PLACEMENT_3D('',#675,#571,#572);
#454=AXIS2_PLACEMENT_3D('',#676,#573,#574);
#455=AXIS2_PLACEMENT_3D('',#677,#575,#576);
#456=AXIS2_PLACEMENT_3D('',#678,#577,#578);
#457=AXIS2_PLACEMENT_3D('',#679,#579,#580);
#458=AXIS2_PLACEMENT_3D('',#680,#581,#582);
#459=AXIS2_PLACEMENT_3D('',#681,#583,#584);
#460=AXIS2_PLACEMENT_3D('',#682,#585,#586);
#461=AXIS2_PLACEMENT_3D('',#684,#587,#588);
#462=AXIS2_PLACEMENT_3D('',#686,#589,#590);
#463=AXIS2_PLACEMENT_3D('',#687,#591,#592);
#464=AXIS2_PLACEMENT_3D('',#689,#593,#594);
#465=AXIS2_PLACEMENT_3D('',#690,#595,#596);
#466=AXIS2_PLACEMENT_3D('',#692,#597,#598);
#467=AXIS2_PLACEMENT_3D('',#693,#599,#600);
#468=AXIS2_PLACEMENT_3D('',#694,#601,#602);
#469=DIRECTION('',(0.,0.,1.));
#470=DIRECTION('',(1.,0.,0.));
#471=DIRECTION('',(-1.,0.,0.));
#472=DIRECTION('',(0.,0.,1.));
#473=DIRECTION('',(1.,0.,0.));
#474=DIRECTION('',(0.,0.,-1.));
#475=DIRECTION('',(1.,0.,0.));
#476=DIRECTION('',(0.,0.,-1.));
#477=DIRECTION('',(1.,0.,0.));
#478=DIRECTION('',(0.,0.,-1.));
#479=DIRECTION('',(1.,0.,0.));
#480=DIRECTION('',(0.,0.,-1.));
#481=DIRECTION('',(1.,0.,0.));
#482=DIRECTION('',(0.,0.,-1.));
#483=DIRECTION('',(1.,0.,0.));
#484=DIRECTION('',(0.,0.,-1.));
#485=DIRECTION('',(1.,0.,0.));
#486=DIRECTION('',(0.,0.,-1.));
#487=DIRECTION('',(1.,0.,0.));
#488=DIRECTION('',(0.,0.,-1.));
#489=DIRECTION('',(1.,0.,0.));
#490=DIRECTION('',(0.,0.,-1.));
#491=DIRECTION('',(1.,0.,0.));
#492=DIRECTION('',(0.,0.,-1.));
#493=DIRECTION('',(1.,0.,0.));
#494=DIRECTION('',(0.,0.,-1.));
#495=DIRECTION('',(1.,0.,0.));
#496=DIRECTION('',(0.,0.,-1.));
#497=DIRECTION('',(1.,0.,0.));
#498=DIRECTION('',(0.,0.,-1.));
#499=DIRECTION('',(1.,0.,0.));
#500=DIRECTION('',(0.,0.,-1.));
#501=DIRECTION('',(1.,0.,0.));
#502=DIRECTION('',(0.,0.,-1.));
#503=DIRECTION('',(0.,0.,1.));
#504=DIRECTION('',(1.,0.,0.));
#505=DIRECTION('',(-1.,0.,0.));
#506=DIRECTION('',(0.,0.,1.));
#507=DIRECTION('',(1.,0.,0.));
#508=DIRECTION('',(0.,0.,-1.));
#509=DIRECTION('',(1.,0.,0.));
#510=DIRECTION('',(0.,0.,-1.));
#511=DIRECTION('',(1.,0.,0.));
#512=DIRECTION('',(0.,0.,-1.));
#513=DIRECTION('',(1.,0.,0.));
#514=DIRECTION('',(0.,0.,-1.));
#515=DIRECTION('',(-1.,0.,0.));
#516=DIRECTION('',(0.,0.,1.));
#517=DIRECTION('',(1.,0.,0.));
#518=DIRECTION('',(0.,0.,-1.));
#519=DIRECTION('',(1.,0.,0.));
#520=DIRECTION('',(0.,0.,-1.));
#521=DIRECTION('',(1.,0.,0.));
#522=DIRECTION('',(0.,0.,-1.));
#523=DIRECTION('',(1.,0.,0.));
#524=DIRECTION('',(0.,0.,-1.));
#525=DIRECTION('',(1.,0.,0.));
#526=DIRECTION('',(0.,0.,-1.));
#527=DIRECTION('',(1.,0.,0.));
#528=DIRECTION('',(0.,0.,-1.));
#529=DIRECTION('',(1.,0.,0.));
#530=DIRECTION('',(0.,0.,-1.));
#531=DIRECTION('',(1.,0.,0.));
#532=DIRECTION('',(0.,0.,-1.));
#533=DIRECTION('',(1.,0.,0.));
#534=DIRECTION('',(0.,0.,-1.));
#535=DIRECTION('',(1.,0.,0.));
#536=DIRECTION('',(0.,0.,-1.));
#537=DIRECTION('',(1.,0.,0.));
#538=DIRECTION('',(0.,0.,-1.));
#539=DIRECTION('',(1.,0.,0.));
#540=DIRECTION('',(0.,0.,-1.));
#541=DIRECTION('',(1.,0.,0.));
#542=DIRECTION('',(0.,0.,-1.));
#543=DIRECTION('',(1.,0.,0.));
#544=DIRECTION('',(0.,0.,-1.));
#545=DIRECTION('',(1.,0.,0.));
#546=DIRECTION('',(0.,0.,-1.));
#547=DIRECTION('',(1.,0.,0.));
#548=DIRECTION('',(0.,0.,-1.));
#549=DIRECTION('',(1.,0.,0.));
#550=DIRECTION('',(0.,0.,-1.));
#551=DIRECTION('',(1.,0.,0.));
#552=DIRECTION('',(0.,0.,-1.));
#553=DIRECTION('',(0.,0.,1.));
#554=DIRECTION('',(1.,0.,0.));
#555=DIRECTION('',(1.,0.,0.));
#556=DIRECTION('',(0.,1.,0.));
#557=DIRECTION('',(-1.,0.,0.));
#558=DIRECTION('',(0.,0.,-1.));
#559=DIRECTION('',(-1.,0.,0.));
#560=DIRECTION('',(0.,0.,-1.));
#561=DIRECTION('',(-1.,0.,0.));
#562=DIRECTION('',(0.,0.,-1.));
#563=DIRECTION('',(-1.,0.,0.));
#564=DIRECTION('',(0.,0.,-1.));
#565=DIRECTION('',(-1.,0.,0.));
#566=DIRECTION('',(0.,0.,-1.));
#567=DIRECTION('',(-1.,0.,0.));
#568=DIRECTION('',(0.,0.,-1.));
#569=DIRECTION('',(-1.,0.,0.));
#570=DIRECTION('',(0.,0.,-1.));
#571=DIRECTION('',(-1.,0.,0.));
#572=DIRECTION('',(0.,0.,-1.));
#573=DIRECTION('',(-1.,0.,0.));
#574=DIRECTION('',(0.,0.,-1.));
#575=DIRECTION('',(-1.,0.,0.));
#576=DIRECTION('',(0.,0.,-1.));
#577=DIRECTION('',(-1.,0.,0.));
#578=DIRECTION('',(0.,0.,-1.));
#579=DIRECTION('',(-1.,0.,0.));
#580=DIRECTION('',(0.,0.,-1.));
#581=DIRECTION('',(-1.,0.,0.));
#582=DIRECTION('',(0.,0.,-1.));
#583=DIRECTION('',(1.,0.,0.));
#584=DIRECTION('',(0.,0.,-1.));
#585=DIRECTION('',(1.,0.,0.));
#586=DIRECTION('',(0.,0.,-1.));
#587=DIRECTION('',(1.,0.,0.));
#588=DIRECTION('',(0.,0.,-1.));
#589=DIRECTION('',(-1.,0.,0.));
#590=DIRECTION('',(0.,0.,1.));
#591=DIRECTION('',(1.,0.,0.));
#592=DIRECTION('',(0.,0.,-1.));
#593=DIRECTION('',(1.,0.,0.));
#594=DIRECTION('',(0.,0.,-1.));
#595=DIRECTION('',(1.,0.,0.));
#596=DIRECTION('',(0.,0.,-1.));
#597=DIRECTION('',(1.,0.,0.));
#598=DIRECTION('',(0.,0.,-1.));
#599=DIRECTION('',(0.,0.,1.));
#600=DIRECTION('',(1.,0.,0.));
#601=DIRECTION('',(0.,0.,1.));
#602=DIRECTION('',(1.,0.,0.));
#603=CARTESIAN_POINT('',(0.,0.,0.));
#604=CARTESIAN_POINT('',(0.,11.6,0.));
#605=CARTESIAN_POINT('',(0.,0.,0.));
#606=CARTESIAN_POINT('',(0.,0.,-10.5));
#607=CARTESIAN_POINT('',(0.,0.,0.));
#608=CARTESIAN_POINT('',(0.,0.,-11.6));
#609=CARTESIAN_POINT('',(0.592782730020051,0.,0.));
#610=CARTESIAN_POINT('',(0.500000000000005,0.,0.));
#611=CARTESIAN_POINT('',(0.500000000000005,0.,-10.));
#612=CARTESIAN_POINT('',(7.,0.,0.));
#613=CARTESIAN_POINT('',(6.50000000000001,0.,0.));
#614=CARTESIAN_POINT('',(6.50000000000001,0.,-10.));
#615=CARTESIAN_POINT('',(6.40721726997995,0.,0.));
#616=CARTESIAN_POINT('',(7.,0.,0.));
#617=CARTESIAN_POINT('',(7.,0.,-10.5));
#618=CARTESIAN_POINT('',(7.,10.5,0.));
#619=CARTESIAN_POINT('',(7.,0.,0.));
#620=CARTESIAN_POINT('',(7.,0.,-11.6));
#621=CARTESIAN_POINT('',(7.,0.,0.));
#622=CARTESIAN_POINT('',(4.81909059582729,0.,0.));
#623=CARTESIAN_POINT('',(4.81909059582729,0.,-11.6));
#624=CARTESIAN_POINT('',(3.5,0.,0.));
#625=CARTESIAN_POINT('',(2.18090940417271,0.,0.));
#626=CARTESIAN_POINT('',(2.18090940417271,0.,-11.6));
#627=CARTESIAN_POINT('',(7.,0.,0.));
#628=CARTESIAN_POINT('',(0.,0.,0.));
#629=CARTESIAN_POINT('',(-1.40946282423116E-15,15.5,0.));
#630=CARTESIAN_POINT('',(0.,0.,0.));
#631=CARTESIAN_POINT('',(0.,0.,-14.55));
#632=CARTESIAN_POINT('',(-2.60208521396521E-15,0.,0.));
#633=CARTESIAN_POINT('',(-2.60208521396521E-15,0.,-15.5));
#634=CARTESIAN_POINT('',(7.,0.,0.));
#635=CARTESIAN_POINT('',(0.35,0.,0.));
#636=CARTESIAN_POINT('',(0.35,0.,-14.55));
#637=CARTESIAN_POINT('',(0.35,14.55,0.));
#638=CARTESIAN_POINT('',(0.35,0.,0.));
#639=CARTESIAN_POINT('',(0.35,0.,-14.05));
#640=CARTESIAN_POINT('',(7.,0.,0.));
#641=CARTESIAN_POINT('',(2.328462548614,0.,0.));
#642=CARTESIAN_POINT('',(2.328462548614,0.,-14.05));
#643=CARTESIAN_POINT('',(3.5,0.,0.));
#644=CARTESIAN_POINT('',(4.671537451386,0.,0.));
#645=CARTESIAN_POINT('',(4.671537451386,0.,-14.05));
#646=CARTESIAN_POINT('',(7.,0.,0.));
#647=CARTESIAN_POINT('',(6.65,0.,0.));
#648=CARTESIAN_POINT('',(6.65,0.,-14.05));
#649=CARTESIAN_POINT('',(6.65,14.05,0.));
#650=CARTESIAN_POINT('',(6.65,0.,0.));
#651=CARTESIAN_POINT('',(6.65,0.,-14.55));
#652=CARTESIAN_POINT('',(7.,0.,0.));
#653=CARTESIAN_POINT('',(7.,0.,0.));
#654=CARTESIAN_POINT('',(7.,0.,-14.55));
#655=CARTESIAN_POINT('',(7.,14.55,0.));
#656=CARTESIAN_POINT('',(7.,0.,0.));
#657=CARTESIAN_POINT('',(7.,0.,-15.5));
#658=CARTESIAN_POINT('',(6.40721726997996,0.,0.));
#659=CARTESIAN_POINT('',(6.49999999999999,0.,0.));
#660=CARTESIAN_POINT('',(6.49999999999999,0.,-16.));
#661=CARTESIAN_POINT('',(7.,0.,0.));
#662=CARTESIAN_POINT('',(0.500000000000006,0.,0.));
#663=CARTESIAN_POINT('',(0.500000000000006,0.,-16.));
#664=CARTESIAN_POINT('',(0.592782730020049,0.,0.));
#665=CARTESIAN_POINT('',(0.,0.,0.));
#666=CARTESIAN_POINT('',(0.,-2.16840434497101E-16,0.));
#667=CARTESIAN_POINT('',(-1.75,-1.09683839571707E-16,0.));
#668=CARTESIAN_POINT('',(3.5,12.75,0.));
#669=CARTESIAN_POINT('',(3.5,11.2895643270784,5.92522044355805));
#670=CARTESIAN_POINT('',(3.5,7.24282552082224,10.4930442901441));
#671=CARTESIAN_POINT('',(3.5,1.53684267325537,12.6570381447502));
#672=CARTESIAN_POINT('',(3.5,-4.52121230979233,11.921457094239));
#673=CARTESIAN_POINT('',(3.5,-9.54351203918154,8.45481389257014));
#674=CARTESIAN_POINT('',(3.5,-12.3795081721822,3.05127471966636));
#675=CARTESIAN_POINT('',(3.5,-12.3795081721822,-3.05127471966636));
#676=CARTESIAN_POINT('',(3.5,-9.54351203918154,-8.45481389257014));
#677=CARTESIAN_POINT('',(3.5,-4.52121230979233,-11.921457094239));
#678=CARTESIAN_POINT('',(3.5,1.53684267325537,-12.6570381447502));
#679=CARTESIAN_POINT('',(3.5,7.24282552082224,-10.4930442901441));
#680=CARTESIAN_POINT('',(3.5,11.2895643270784,-5.92522044355805));
#681=CARTESIAN_POINT('',(0.15,0.,0.));
#682=CARTESIAN_POINT('',(0.,0.,0.));
#683=CARTESIAN_POINT('',(0.,0.,-14.55));
#684=CARTESIAN_POINT('',(0.15,0.,0.));
#685=CARTESIAN_POINT('',(0.15,0.,-14.55));
#686=CARTESIAN_POINT('',(0.,14.55,0.));
#687=CARTESIAN_POINT('',(0.,0.,0.));
#688=CARTESIAN_POINT('',(0.,0.,-11.6));
#689=CARTESIAN_POINT('',(0.15,0.,0.));
#690=CARTESIAN_POINT('',(0.15,0.,0.));
#691=CARTESIAN_POINT('',(0.15,0.,-11.6));
#692=CARTESIAN_POINT('',(0.15,11.6,0.));
#693=CARTESIAN_POINT('',(0.2,0.,0.));
#694=CARTESIAN_POINT('',(6.65,0.,0.));
#695=MECHANICAL_DESIGN_GEOMETRIC_PRESENTATION_REPRESENTATION('',(#359,#360,
#361,#362),#696);
#696=(
GEOMETRIC_REPRESENTATION_CONTEXT(3)
GLOBAL_UNCERTAINTY_ASSIGNED_CONTEXT((#701))
GLOBAL_UNIT_ASSIGNED_CONTEXT((#708,#707,#706))
REPRESENTATION_CONTEXT('68042RS','TOP_LEVEL_ASSEMBLY_PART')
);
#697=(
GEOMETRIC_REPRESENTATION_CONTEXT(3)
GLOBAL_UNCERTAINTY_ASSIGNED_CONTEXT((#702))
GLOBAL_UNIT_ASSIGNED_CONTEXT((#708,#707,#706))
REPRESENTATION_CONTEXT('68042RS Inner ring','COMPONENT_PART')
);
#698=(
GEOMETRIC_REPRESENTATION_CONTEXT(3)
GLOBAL_UNCERTAINTY_ASSIGNED_CONTEXT((#703))
GLOBAL_UNIT_ASSIGNED_CONTEXT((#708,#707,#706))
REPRESENTATION_CONTEXT('68042RS Outer ring','COMPONENT_PART')
);
#699=(
GEOMETRIC_REPRESENTATION_CONTEXT(3)
GLOBAL_UNCERTAINTY_ASSIGNED_CONTEXT((#704))
GLOBAL_UNIT_ASSIGNED_CONTEXT((#708,#707,#706))
REPRESENTATION_CONTEXT('68042RS Ball','COMPONENT_PART')
);
#700=(
GEOMETRIC_REPRESENTATION_CONTEXT(3)
GLOBAL_UNCERTAINTY_ASSIGNED_CONTEXT((#705))
GLOBAL_UNIT_ASSIGNED_CONTEXT((#708,#707,#706))
REPRESENTATION_CONTEXT('68042RS Seal','COMPONENT_PART')
);
#701=UNCERTAINTY_MEASURE_WITH_UNIT(LENGTH_MEASURE(1.E-5),#708,
'DISTANCE_ACCURACY_VALUE','Maximum Tolerance applied to model');
#702=UNCERTAINTY_MEASURE_WITH_UNIT(LENGTH_MEASURE(1.E-5),#708,
'DISTANCE_ACCURACY_VALUE','Maximum Tolerance applied to model');
#703=UNCERTAINTY_MEASURE_WITH_UNIT(LENGTH_MEASURE(1.E-5),#708,
'DISTANCE_ACCURACY_VALUE','Maximum Tolerance applied to model');
#704=UNCERTAINTY_MEASURE_WITH_UNIT(LENGTH_MEASURE(1.E-5),#708,
'DISTANCE_ACCURACY_VALUE','Maximum Tolerance applied to model');
#705=UNCERTAINTY_MEASURE_WITH_UNIT(LENGTH_MEASURE(1.E-5),#708,
'DISTANCE_ACCURACY_VALUE','Maximum Tolerance applied to model');
#706=(
NAMED_UNIT(*)
SI_UNIT($,.STERADIAN.)
SOLID_ANGLE_UNIT()
);
#707=(
NAMED_UNIT(*)
PLANE_ANGLE_UNIT()
SI_UNIT($,.RADIAN.)
);
#708=(
LENGTH_UNIT()
NAMED_UNIT(*)
SI_UNIT(.MILLI.,.METRE.)
);
#709=PRODUCT_DEFINITION_SHAPE('','',#731);
#710=PRODUCT_DEFINITION_SHAPE('','',#732);
#711=PRODUCT_DEFINITION_SHAPE(' ','NAUO PRDDFN',#29);
#712=PRODUCT_DEFINITION_SHAPE('','',#733);
#713=PRODUCT_DEFINITION_SHAPE(' ','NAUO PRDDFN',#30);
#714=PRODUCT_DEFINITION_SHAPE('','',#734);
#715=PRODUCT_DEFINITION_SHAPE(' ','NAUO PRDDFN',#31);
#716=PRODUCT_DEFINITION_SHAPE(' ','NAUO PRDDFN',#32);
#717=PRODUCT_DEFINITION_SHAPE(' ','NAUO PRDDFN',#33);
#718=PRODUCT_DEFINITION_SHAPE(' ','NAUO PRDDFN',#34);
#719=PRODUCT_DEFINITION_SHAPE(' ','NAUO PRDDFN',#35);
#720=PRODUCT_DEFINITION_SHAPE(' ','NAUO PRDDFN',#36);
#721=PRODUCT_DEFINITION_SHAPE(' ','NAUO PRDDFN',#37);
#722=PRODUCT_DEFINITION_SHAPE(' ','NAUO PRDDFN',#38);
#723=PRODUCT_DEFINITION_SHAPE(' ','NAUO PRDDFN',#39);
#724=PRODUCT_DEFINITION_SHAPE(' ','NAUO PRDDFN',#40);
#725=PRODUCT_DEFINITION_SHAPE(' ','NAUO PRDDFN',#41);
#726=PRODUCT_DEFINITION_SHAPE(' ','NAUO PRDDFN',#42);
#727=PRODUCT_DEFINITION_SHAPE(' ','NAUO PRDDFN',#43);
#728=PRODUCT_DEFINITION_SHAPE('','',#735);
#729=PRODUCT_DEFINITION_SHAPE(' ','NAUO PRDDFN',#44);
#730=PRODUCT_DEFINITION_SHAPE(' ','NAUO PRDDFN',#45);
#731=PRODUCT_DEFINITION('','',#741,#736);
#732=PRODUCT_DEFINITION('','',#742,#737);
#733=PRODUCT_DEFINITION('','',#743,#738);
#734=PRODUCT_DEFINITION('','',#744,#739);
#735=PRODUCT_DEFINITION('','',#745,#740);
#736=PRODUCT_DEFINITION_CONTEXT('',#767,'design');
#737=PRODUCT_DEFINITION_CONTEXT('',#767,'design');
#738=PRODUCT_DEFINITION_CONTEXT('',#767,'design');
#739=PRODUCT_DEFINITION_CONTEXT('',#767,'design');
#740=PRODUCT_DEFINITION_CONTEXT('',#767,'design');
#741=PRODUCT_DEFINITION_FORMATION_WITH_SPECIFIED_SOURCE('','',#751,
 .NOT_KNOWN.);
#742=PRODUCT_DEFINITION_FORMATION_WITH_SPECIFIED_SOURCE('','',#752,
 .NOT_KNOWN.);
#743=PRODUCT_DEFINITION_FORMATION_WITH_SPECIFIED_SOURCE('','',#753,
 .NOT_KNOWN.);
#744=PRODUCT_DEFINITION_FORMATION_WITH_SPECIFIED_SOURCE('','',#754,
 .NOT_KNOWN.);
#745=PRODUCT_DEFINITION_FORMATION_WITH_SPECIFIED_SOURCE('','',#755,
 .NOT_KNOWN.);
#746=PRODUCT_RELATED_PRODUCT_CATEGORY('','',(#751));
#747=PRODUCT_RELATED_PRODUCT_CATEGORY('','',(#752));
#748=PRODUCT_RELATED_PRODUCT_CATEGORY('','',(#753));
#749=PRODUCT_RELATED_PRODUCT_CATEGORY('','',(#754));
#750=PRODUCT_RELATED_PRODUCT_CATEGORY('','',(#755));
#751=PRODUCT('68042RS','68042RS','68042RS',(#761));
#752=PRODUCT('68042RS Inner ring','68042RS Inner ring',
'68042RS Inner ring',(#762));
#753=PRODUCT('68042RS Outer ring','68042RS Outer ring',
'68042RS Outer ring',(#763));
#754=PRODUCT('68042RS Ball','68042RS Ball','68042RS Ball',(#764));
#755=PRODUCT('68042RS Seal','68042RS Seal','68042RS Seal',(#765));
#756=PRODUCT_CATEGORY('','');
#757=PRODUCT_CATEGORY('','');
#758=PRODUCT_CATEGORY('','');
#759=PRODUCT_CATEGORY('','');
#760=PRODUCT_CATEGORY('','');
#761=PRODUCT_CONTEXT('',#767,'mechanical');
#762=PRODUCT_CONTEXT('',#767,'mechanical');
#763=PRODUCT_CONTEXT('',#767,'mechanical');
#764=PRODUCT_CONTEXT('',#767,'mechanical');
#765=PRODUCT_CONTEXT('',#767,'mechanical');
#766=APPLICATION_PROTOCOL_DEFINITION('international standard',
'ap242_managed_model_based_3d_engineering',2011,#767);
#767=APPLICATION_CONTEXT('managed model based 3d engineering');
ENDSEC;
END-ISO-10303-21;
